<mxfile host="app.diagrams.net" modified="2020-10-20T00:29:06.422Z" agent="5.0 (Macintosh; Intel Mac OS X 10_15_6) AppleWebKit/605.1.15 (KHTML, like Gecko) Version/14.0 Safari/605.1.15" etag="55kn15oC0N--Tn38Ya70" version="13.8.0" type="github">
  <diagram id="C5RBs43oDa-KdzZeNtuy" name="Page-1">
    <mxGraphModel dx="946" dy="687" grid="1" gridSize="10" guides="1" tooltips="1" connect="1" arrows="1" fold="1" page="1" pageScale="1" pageWidth="827" pageHeight="1169" math="0" shadow="0">
      <root>
        <mxCell id="WIyWlLk6GJQsqaUBKTNV-0" />
        <mxCell id="WIyWlLk6GJQsqaUBKTNV-1" parent="WIyWlLk6GJQsqaUBKTNV-0" />
        <mxCell id="1ZM4-6F-wcKnOlTKeMzP-11" value="" style="edgeStyle=orthogonalEdgeStyle;rounded=0;orthogonalLoop=1;jettySize=auto;html=1;" edge="1" parent="WIyWlLk6GJQsqaUBKTNV-1" source="1ZM4-6F-wcKnOlTKeMzP-0" target="1ZM4-6F-wcKnOlTKeMzP-10">
          <mxGeometry relative="1" as="geometry" />
        </mxCell>
        <mxCell id="1ZM4-6F-wcKnOlTKeMzP-0" value="EnciendeBombRed" style="rounded=1;whiteSpace=wrap;html=1;" vertex="1" parent="WIyWlLk6GJQsqaUBKTNV-1">
          <mxGeometry x="150" y="240" width="120" height="60" as="geometry" />
        </mxCell>
        <mxCell id="1ZM4-6F-wcKnOlTKeMzP-9" value="" style="edgeStyle=orthogonalEdgeStyle;rounded=0;orthogonalLoop=1;jettySize=auto;html=1;" edge="1" parent="WIyWlLk6GJQsqaUBKTNV-1" source="1ZM4-6F-wcKnOlTKeMzP-1" target="1ZM4-6F-wcKnOlTKeMzP-0">
          <mxGeometry relative="1" as="geometry" />
        </mxCell>
        <mxCell id="1ZM4-6F-wcKnOlTKeMzP-1" value="Loop" style="rounded=1;whiteSpace=wrap;html=1;" vertex="1" parent="WIyWlLk6GJQsqaUBKTNV-1">
          <mxGeometry x="150" y="160" width="120" height="60" as="geometry" />
        </mxCell>
        <mxCell id="1ZM4-6F-wcKnOlTKeMzP-4" value="" style="edgeStyle=orthogonalEdgeStyle;rounded=0;orthogonalLoop=1;jettySize=auto;html=1;" edge="1" parent="WIyWlLk6GJQsqaUBKTNV-1" source="1ZM4-6F-wcKnOlTKeMzP-2" target="1ZM4-6F-wcKnOlTKeMzP-3">
          <mxGeometry relative="1" as="geometry" />
        </mxCell>
        <mxCell id="1ZM4-6F-wcKnOlTKeMzP-2" value="Setup" style="rounded=1;whiteSpace=wrap;html=1;" vertex="1" parent="WIyWlLk6GJQsqaUBKTNV-1">
          <mxGeometry x="150" y="60" width="120" height="60" as="geometry" />
        </mxCell>
        <mxCell id="1ZM4-6F-wcKnOlTKeMzP-8" style="edgeStyle=orthogonalEdgeStyle;rounded=0;orthogonalLoop=1;jettySize=auto;html=1;" edge="1" parent="WIyWlLk6GJQsqaUBKTNV-1" source="1ZM4-6F-wcKnOlTKeMzP-3" target="1ZM4-6F-wcKnOlTKeMzP-1">
          <mxGeometry relative="1" as="geometry">
            <Array as="points">
              <mxPoint x="400" y="190" />
            </Array>
          </mxGeometry>
        </mxCell>
        <mxCell id="1ZM4-6F-wcKnOlTKeMzP-3" value="Configura 3 leds" style="whiteSpace=wrap;html=1;rounded=1;" vertex="1" parent="WIyWlLk6GJQsqaUBKTNV-1">
          <mxGeometry x="350" y="60" width="120" height="60" as="geometry" />
        </mxCell>
        <mxCell id="1ZM4-6F-wcKnOlTKeMzP-13" value="" style="edgeStyle=orthogonalEdgeStyle;rounded=0;orthogonalLoop=1;jettySize=auto;html=1;" edge="1" parent="WIyWlLk6GJQsqaUBKTNV-1" source="1ZM4-6F-wcKnOlTKeMzP-10" target="1ZM4-6F-wcKnOlTKeMzP-12">
          <mxGeometry relative="1" as="geometry" />
        </mxCell>
        <mxCell id="1ZM4-6F-wcKnOlTKeMzP-10" value="ApagaBombYel" style="whiteSpace=wrap;html=1;rounded=1;" vertex="1" parent="WIyWlLk6GJQsqaUBKTNV-1">
          <mxGeometry x="350" y="240" width="120" height="60" as="geometry" />
        </mxCell>
        <mxCell id="1ZM4-6F-wcKnOlTKeMzP-16" style="edgeStyle=orthogonalEdgeStyle;rounded=0;orthogonalLoop=1;jettySize=auto;html=1;entryX=1;entryY=0.5;entryDx=0;entryDy=0;" edge="1" parent="WIyWlLk6GJQsqaUBKTNV-1" source="1ZM4-6F-wcKnOlTKeMzP-12" target="1ZM4-6F-wcKnOlTKeMzP-14">
          <mxGeometry relative="1" as="geometry">
            <Array as="points">
              <mxPoint x="590" y="340" />
            </Array>
          </mxGeometry>
        </mxCell>
        <mxCell id="1ZM4-6F-wcKnOlTKeMzP-12" value="ApagaBombGre" style="whiteSpace=wrap;html=1;rounded=1;" vertex="1" parent="WIyWlLk6GJQsqaUBKTNV-1">
          <mxGeometry x="550" y="240" width="120" height="60" as="geometry" />
        </mxCell>
        <mxCell id="1ZM4-6F-wcKnOlTKeMzP-18" value="" style="edgeStyle=orthogonalEdgeStyle;rounded=0;orthogonalLoop=1;jettySize=auto;html=1;" edge="1" parent="WIyWlLk6GJQsqaUBKTNV-1" source="1ZM4-6F-wcKnOlTKeMzP-14" target="1ZM4-6F-wcKnOlTKeMzP-17">
          <mxGeometry relative="1" as="geometry" />
        </mxCell>
        <mxCell id="1ZM4-6F-wcKnOlTKeMzP-14" value="XtiempoTranscurrido&lt;br&gt;" style="whiteSpace=wrap;html=1;rounded=1;" vertex="1" parent="WIyWlLk6GJQsqaUBKTNV-1">
          <mxGeometry x="354" y="310" width="120" height="60" as="geometry" />
        </mxCell>
        <mxCell id="1ZM4-6F-wcKnOlTKeMzP-20" value="" style="edgeStyle=orthogonalEdgeStyle;rounded=0;orthogonalLoop=1;jettySize=auto;html=1;" edge="1" parent="WIyWlLk6GJQsqaUBKTNV-1" source="1ZM4-6F-wcKnOlTKeMzP-17" target="1ZM4-6F-wcKnOlTKeMzP-19">
          <mxGeometry relative="1" as="geometry" />
        </mxCell>
        <mxCell id="1ZM4-6F-wcKnOlTKeMzP-17" value="EncendidoBombRed" style="whiteSpace=wrap;html=1;rounded=1;" vertex="1" parent="WIyWlLk6GJQsqaUBKTNV-1">
          <mxGeometry x="154" y="380" width="120" height="60" as="geometry" />
        </mxCell>
        <mxCell id="1ZM4-6F-wcKnOlTKeMzP-22" value="" style="edgeStyle=orthogonalEdgeStyle;rounded=0;orthogonalLoop=1;jettySize=auto;html=1;" edge="1" parent="WIyWlLk6GJQsqaUBKTNV-1" source="1ZM4-6F-wcKnOlTKeMzP-19" target="1ZM4-6F-wcKnOlTKeMzP-21">
          <mxGeometry relative="1" as="geometry" />
        </mxCell>
        <mxCell id="1ZM4-6F-wcKnOlTKeMzP-19" value="EncendidoBombYell" style="whiteSpace=wrap;html=1;rounded=1;" vertex="1" parent="WIyWlLk6GJQsqaUBKTNV-1">
          <mxGeometry x="354" y="380" width="120" height="60" as="geometry" />
        </mxCell>
        <mxCell id="1ZM4-6F-wcKnOlTKeMzP-24" style="edgeStyle=orthogonalEdgeStyle;rounded=0;orthogonalLoop=1;jettySize=auto;html=1;entryX=1;entryY=0.5;entryDx=0;entryDy=0;" edge="1" parent="WIyWlLk6GJQsqaUBKTNV-1" source="1ZM4-6F-wcKnOlTKeMzP-21" target="1ZM4-6F-wcKnOlTKeMzP-23">
          <mxGeometry relative="1" as="geometry">
            <Array as="points">
              <mxPoint x="590" y="480" />
            </Array>
          </mxGeometry>
        </mxCell>
        <mxCell id="1ZM4-6F-wcKnOlTKeMzP-21" value="ApagaBombGree" style="whiteSpace=wrap;html=1;rounded=1;" vertex="1" parent="WIyWlLk6GJQsqaUBKTNV-1">
          <mxGeometry x="554" y="380" width="120" height="60" as="geometry" />
        </mxCell>
        <mxCell id="1ZM4-6F-wcKnOlTKeMzP-30" style="edgeStyle=orthogonalEdgeStyle;rounded=0;orthogonalLoop=1;jettySize=auto;html=1;entryX=0.5;entryY=0;entryDx=0;entryDy=0;" edge="1" parent="WIyWlLk6GJQsqaUBKTNV-1" source="1ZM4-6F-wcKnOlTKeMzP-23" target="1ZM4-6F-wcKnOlTKeMzP-26">
          <mxGeometry relative="1" as="geometry" />
        </mxCell>
        <mxCell id="1ZM4-6F-wcKnOlTKeMzP-23" value="XtiempoTranscurrido&lt;br&gt;" style="whiteSpace=wrap;html=1;rounded=1;" vertex="1" parent="WIyWlLk6GJQsqaUBKTNV-1">
          <mxGeometry x="354" y="450" width="120" height="60" as="geometry" />
        </mxCell>
        <mxCell id="1ZM4-6F-wcKnOlTKeMzP-25" value="" style="edgeStyle=orthogonalEdgeStyle;rounded=0;orthogonalLoop=1;jettySize=auto;html=1;" edge="1" parent="WIyWlLk6GJQsqaUBKTNV-1" source="1ZM4-6F-wcKnOlTKeMzP-26" target="1ZM4-6F-wcKnOlTKeMzP-28">
          <mxGeometry relative="1" as="geometry" />
        </mxCell>
        <mxCell id="1ZM4-6F-wcKnOlTKeMzP-26" value="ApagaBombRed" style="whiteSpace=wrap;html=1;rounded=1;" vertex="1" parent="WIyWlLk6GJQsqaUBKTNV-1">
          <mxGeometry x="154" y="520" width="120" height="60" as="geometry" />
        </mxCell>
        <mxCell id="1ZM4-6F-wcKnOlTKeMzP-27" value="" style="edgeStyle=orthogonalEdgeStyle;rounded=0;orthogonalLoop=1;jettySize=auto;html=1;" edge="1" parent="WIyWlLk6GJQsqaUBKTNV-1" source="1ZM4-6F-wcKnOlTKeMzP-28" target="1ZM4-6F-wcKnOlTKeMzP-29">
          <mxGeometry relative="1" as="geometry" />
        </mxCell>
        <mxCell id="1ZM4-6F-wcKnOlTKeMzP-28" value="ApagaBombYell" style="whiteSpace=wrap;html=1;rounded=1;" vertex="1" parent="WIyWlLk6GJQsqaUBKTNV-1">
          <mxGeometry x="354" y="520" width="120" height="60" as="geometry" />
        </mxCell>
        <mxCell id="1ZM4-6F-wcKnOlTKeMzP-32" style="edgeStyle=orthogonalEdgeStyle;rounded=0;orthogonalLoop=1;jettySize=auto;html=1;entryX=1;entryY=0.5;entryDx=0;entryDy=0;" edge="1" parent="WIyWlLk6GJQsqaUBKTNV-1" source="1ZM4-6F-wcKnOlTKeMzP-29" target="1ZM4-6F-wcKnOlTKeMzP-31">
          <mxGeometry relative="1" as="geometry">
            <Array as="points">
              <mxPoint x="614" y="620" />
            </Array>
          </mxGeometry>
        </mxCell>
        <mxCell id="1ZM4-6F-wcKnOlTKeMzP-29" value="EncendidoBombGree" style="whiteSpace=wrap;html=1;rounded=1;" vertex="1" parent="WIyWlLk6GJQsqaUBKTNV-1">
          <mxGeometry x="554" y="520" width="120" height="60" as="geometry" />
        </mxCell>
        <mxCell id="1ZM4-6F-wcKnOlTKeMzP-38" style="edgeStyle=orthogonalEdgeStyle;rounded=0;orthogonalLoop=1;jettySize=auto;html=1;" edge="1" parent="WIyWlLk6GJQsqaUBKTNV-1" source="1ZM4-6F-wcKnOlTKeMzP-31" target="1ZM4-6F-wcKnOlTKeMzP-34">
          <mxGeometry relative="1" as="geometry" />
        </mxCell>
        <mxCell id="1ZM4-6F-wcKnOlTKeMzP-31" value="XtiempoTranscurrido&lt;br&gt;" style="whiteSpace=wrap;html=1;rounded=1;" vertex="1" parent="WIyWlLk6GJQsqaUBKTNV-1">
          <mxGeometry x="354" y="590" width="120" height="60" as="geometry" />
        </mxCell>
        <mxCell id="1ZM4-6F-wcKnOlTKeMzP-33" value="" style="edgeStyle=orthogonalEdgeStyle;rounded=0;orthogonalLoop=1;jettySize=auto;html=1;" edge="1" parent="WIyWlLk6GJQsqaUBKTNV-1" source="1ZM4-6F-wcKnOlTKeMzP-34" target="1ZM4-6F-wcKnOlTKeMzP-36">
          <mxGeometry relative="1" as="geometry" />
        </mxCell>
        <mxCell id="1ZM4-6F-wcKnOlTKeMzP-34" value="ApagaBombRed" style="whiteSpace=wrap;html=1;rounded=1;" vertex="1" parent="WIyWlLk6GJQsqaUBKTNV-1">
          <mxGeometry x="154" y="660" width="120" height="60" as="geometry" />
        </mxCell>
        <mxCell id="1ZM4-6F-wcKnOlTKeMzP-35" value="" style="edgeStyle=orthogonalEdgeStyle;rounded=0;orthogonalLoop=1;jettySize=auto;html=1;" edge="1" parent="WIyWlLk6GJQsqaUBKTNV-1" source="1ZM4-6F-wcKnOlTKeMzP-36" target="1ZM4-6F-wcKnOlTKeMzP-37">
          <mxGeometry relative="1" as="geometry" />
        </mxCell>
        <mxCell id="1ZM4-6F-wcKnOlTKeMzP-36" value="EncendidoBombYell" style="whiteSpace=wrap;html=1;rounded=1;" vertex="1" parent="WIyWlLk6GJQsqaUBKTNV-1">
          <mxGeometry x="354" y="660" width="120" height="60" as="geometry" />
        </mxCell>
        <mxCell id="1ZM4-6F-wcKnOlTKeMzP-45" style="edgeStyle=orthogonalEdgeStyle;rounded=0;orthogonalLoop=1;jettySize=auto;html=1;entryX=1;entryY=0.5;entryDx=0;entryDy=0;" edge="1" parent="WIyWlLk6GJQsqaUBKTNV-1" source="1ZM4-6F-wcKnOlTKeMzP-37" target="1ZM4-6F-wcKnOlTKeMzP-39">
          <mxGeometry relative="1" as="geometry">
            <Array as="points">
              <mxPoint x="614" y="760" />
            </Array>
          </mxGeometry>
        </mxCell>
        <mxCell id="1ZM4-6F-wcKnOlTKeMzP-37" value="EncendidoBombGree" style="whiteSpace=wrap;html=1;rounded=1;" vertex="1" parent="WIyWlLk6GJQsqaUBKTNV-1">
          <mxGeometry x="554" y="660" width="120" height="60" as="geometry" />
        </mxCell>
        <mxCell id="1ZM4-6F-wcKnOlTKeMzP-46" style="edgeStyle=orthogonalEdgeStyle;rounded=0;orthogonalLoop=1;jettySize=auto;html=1;entryX=0.5;entryY=0;entryDx=0;entryDy=0;" edge="1" parent="WIyWlLk6GJQsqaUBKTNV-1" source="1ZM4-6F-wcKnOlTKeMzP-39" target="1ZM4-6F-wcKnOlTKeMzP-41">
          <mxGeometry relative="1" as="geometry" />
        </mxCell>
        <mxCell id="1ZM4-6F-wcKnOlTKeMzP-39" value="XtiempoTranscurrido&lt;br&gt;" style="whiteSpace=wrap;html=1;rounded=1;" vertex="1" parent="WIyWlLk6GJQsqaUBKTNV-1">
          <mxGeometry x="354" y="730" width="120" height="60" as="geometry" />
        </mxCell>
        <mxCell id="1ZM4-6F-wcKnOlTKeMzP-40" value="" style="edgeStyle=orthogonalEdgeStyle;rounded=0;orthogonalLoop=1;jettySize=auto;html=1;" edge="1" parent="WIyWlLk6GJQsqaUBKTNV-1" source="1ZM4-6F-wcKnOlTKeMzP-41" target="1ZM4-6F-wcKnOlTKeMzP-43">
          <mxGeometry relative="1" as="geometry" />
        </mxCell>
        <mxCell id="1ZM4-6F-wcKnOlTKeMzP-41" value="EnciendeBombRed" style="whiteSpace=wrap;html=1;rounded=1;" vertex="1" parent="WIyWlLk6GJQsqaUBKTNV-1">
          <mxGeometry x="154" y="800" width="120" height="60" as="geometry" />
        </mxCell>
        <mxCell id="1ZM4-6F-wcKnOlTKeMzP-42" value="" style="edgeStyle=orthogonalEdgeStyle;rounded=0;orthogonalLoop=1;jettySize=auto;html=1;" edge="1" parent="WIyWlLk6GJQsqaUBKTNV-1" source="1ZM4-6F-wcKnOlTKeMzP-43" target="1ZM4-6F-wcKnOlTKeMzP-44">
          <mxGeometry relative="1" as="geometry" />
        </mxCell>
        <mxCell id="1ZM4-6F-wcKnOlTKeMzP-43" value="EncendidoBombYell" style="whiteSpace=wrap;html=1;rounded=1;" vertex="1" parent="WIyWlLk6GJQsqaUBKTNV-1">
          <mxGeometry x="354" y="800" width="120" height="60" as="geometry" />
        </mxCell>
        <mxCell id="1ZM4-6F-wcKnOlTKeMzP-54" style="edgeStyle=orthogonalEdgeStyle;rounded=0;orthogonalLoop=1;jettySize=auto;html=1;entryX=1;entryY=0.5;entryDx=0;entryDy=0;" edge="1" parent="WIyWlLk6GJQsqaUBKTNV-1" source="1ZM4-6F-wcKnOlTKeMzP-44" target="1ZM4-6F-wcKnOlTKeMzP-47">
          <mxGeometry relative="1" as="geometry">
            <Array as="points">
              <mxPoint x="614" y="900" />
            </Array>
          </mxGeometry>
        </mxCell>
        <mxCell id="1ZM4-6F-wcKnOlTKeMzP-44" value="ApagaBombGree" style="whiteSpace=wrap;html=1;rounded=1;" vertex="1" parent="WIyWlLk6GJQsqaUBKTNV-1">
          <mxGeometry x="554" y="800" width="120" height="60" as="geometry" />
        </mxCell>
        <mxCell id="1ZM4-6F-wcKnOlTKeMzP-53" style="edgeStyle=orthogonalEdgeStyle;rounded=0;orthogonalLoop=1;jettySize=auto;html=1;entryX=0.5;entryY=0;entryDx=0;entryDy=0;" edge="1" parent="WIyWlLk6GJQsqaUBKTNV-1" source="1ZM4-6F-wcKnOlTKeMzP-47" target="1ZM4-6F-wcKnOlTKeMzP-49">
          <mxGeometry relative="1" as="geometry" />
        </mxCell>
        <mxCell id="1ZM4-6F-wcKnOlTKeMzP-47" value="XtiempoTranscurrido&lt;br&gt;" style="whiteSpace=wrap;html=1;rounded=1;" vertex="1" parent="WIyWlLk6GJQsqaUBKTNV-1">
          <mxGeometry x="354" y="870" width="120" height="60" as="geometry" />
        </mxCell>
        <mxCell id="1ZM4-6F-wcKnOlTKeMzP-48" value="" style="edgeStyle=orthogonalEdgeStyle;rounded=0;orthogonalLoop=1;jettySize=auto;html=1;" edge="1" parent="WIyWlLk6GJQsqaUBKTNV-1" source="1ZM4-6F-wcKnOlTKeMzP-49" target="1ZM4-6F-wcKnOlTKeMzP-51">
          <mxGeometry relative="1" as="geometry" />
        </mxCell>
        <mxCell id="1ZM4-6F-wcKnOlTKeMzP-49" value="EnciendeBombRed" style="whiteSpace=wrap;html=1;rounded=1;" vertex="1" parent="WIyWlLk6GJQsqaUBKTNV-1">
          <mxGeometry x="154" y="940" width="120" height="60" as="geometry" />
        </mxCell>
        <mxCell id="1ZM4-6F-wcKnOlTKeMzP-50" value="" style="edgeStyle=orthogonalEdgeStyle;rounded=0;orthogonalLoop=1;jettySize=auto;html=1;" edge="1" parent="WIyWlLk6GJQsqaUBKTNV-1" source="1ZM4-6F-wcKnOlTKeMzP-51" target="1ZM4-6F-wcKnOlTKeMzP-52">
          <mxGeometry relative="1" as="geometry" />
        </mxCell>
        <mxCell id="1ZM4-6F-wcKnOlTKeMzP-51" value="ApagaBombYell" style="whiteSpace=wrap;html=1;rounded=1;" vertex="1" parent="WIyWlLk6GJQsqaUBKTNV-1">
          <mxGeometry x="354" y="940" width="120" height="60" as="geometry" />
        </mxCell>
        <mxCell id="1ZM4-6F-wcKnOlTKeMzP-55" style="edgeStyle=orthogonalEdgeStyle;rounded=0;orthogonalLoop=1;jettySize=auto;html=1;entryX=0;entryY=0.5;entryDx=0;entryDy=0;" edge="1" parent="WIyWlLk6GJQsqaUBKTNV-1" source="1ZM4-6F-wcKnOlTKeMzP-52" target="1ZM4-6F-wcKnOlTKeMzP-1">
          <mxGeometry relative="1" as="geometry">
            <Array as="points">
              <mxPoint x="614" y="1020" />
              <mxPoint x="130" y="1020" />
              <mxPoint x="130" y="190" />
            </Array>
          </mxGeometry>
        </mxCell>
        <mxCell id="1ZM4-6F-wcKnOlTKeMzP-52" value="ApagaBombGree" style="whiteSpace=wrap;html=1;rounded=1;" vertex="1" parent="WIyWlLk6GJQsqaUBKTNV-1">
          <mxGeometry x="554" y="940" width="120" height="60" as="geometry" />
        </mxCell>
      </root>
    </mxGraphModel>
  </diagram>
</mxfile>
